<svg  xmlns="http://www.w3.org/2000/svg"
     viewBox="0 0 18 18">

        <path d="M17,12.5a10.88,10.88,0,0,1-3.6-.6h-.3a.91.91,0,0,0-.7.3l-2.2,2.2A15.57,15.57,0,0,1,3.6,7.8L5.8,5.6a.8.8,0,0,0,.2-1A14.22,14.22,0,0,1,5.5,1a1.08,1.08,0,0,0-1-1H1A1.08,1.08,0,0,0,0,1,17,17,0,0,0,17,18a1.08,1.08,0,0,0,1-1V13.5a1.08,1.08,0,0,0-1-1M2,2H3.5A20,20,0,0,0,4,4.6L2.8,5.8A16.06,16.06,0,0,1,2,2M16,16a16.06,16.06,0,0,1-3.8-.8L13.4,14a10.87,10.87,0,0,0,2.6.4V16M12,9h2A5,5,0,0,0,9,4V6a3,3,0,0,1,3,3m4,0h2A9,9,0,0,0,9,0V2a7,7,0,0,1,7,7"/>
</svg>
