<svg xmlns="http://www.w3.org/2000/svg" xmlns:xlink="http://www.w3.org/1999/xlink"
     viewBox="0 0 20 15"
     fill="#bf0909"
>


        <path d="M11.07,6.41a5,5,0,0,0,0-5.82A3.4,3.4,0,0,1,13,0a3.5,3.5,0,0,1,0,7,3.4,3.4,0,0,1-1.93-.59M3.5,3.5A3.5,3.5,0,1,1,7,7,3.5,3.5,0,0,1,3.5,3.5m2,0A1.5,1.5,0,1,0,7,2,1.5,1.5,0,0,0,5.5,3.5M14,13v2H0V13S0,9,7,9s7,4,7,4m-2,0c-.14-.78-1.33-2-5-2s-4.93,1.31-5,2M14,9A5.34,5.34,0,0,1,16,13v2h4V13s0-3.63-6.06-4Z"
              transform="translate(0 0)"/>

</svg>
