<svg
        xmlns="http://www.w3.org/2000/svg"
        width="25px" height="18px">
    <path  fill="rgb(255, 255, 255)"
          d="M0.841,-0.000 C7.075,-0.000 13.312,-0.000 19.546,-0.000 C20.685,-0.000 21.823,-0.000 22.961,-0.000 C23.369,-0.000 23.777,-0.000 24.184,-0.000 C24.184,0.008 24.184,0.017 24.184,0.025 C24.235,0.033 24.286,0.042 24.337,0.050 C24.337,0.059 24.337,0.067 24.337,0.075 C24.388,0.092 24.439,0.109 24.490,0.125 C24.490,0.134 24.490,0.142 24.490,0.151 C24.507,0.151 24.524,0.151 24.541,0.151 C24.558,0.176 24.575,0.201 24.592,0.226 C24.609,0.226 24.626,0.226 24.643,0.226 C24.652,0.243 24.660,0.260 24.669,0.276 C24.703,0.301 24.737,0.327 24.771,0.352 C24.771,0.368 24.771,0.385 24.771,0.402 C24.796,0.419 24.822,0.435 24.847,0.452 C24.847,0.469 24.847,0.486 24.847,0.503 C24.856,0.503 24.864,0.503 24.873,0.503 C24.970,0.676 25.001,0.856 25.000,1.131 C25.000,1.189 25.000,1.248 25.000,1.307 C24.872,1.700 24.608,1.983 24.210,2.111 C24.032,2.119 23.853,2.127 23.675,2.136 C23.327,2.136 22.978,2.136 22.630,2.136 C21.449,2.136 20.268,2.136 19.088,2.136 C14.739,2.136 10.389,2.136 6.040,2.136 C4.800,2.136 3.559,2.136 2.319,2.136 C1.843,2.136 0.970,2.204 0.637,2.060 C0.637,2.052 0.637,2.044 0.637,2.035 C0.620,2.035 0.603,2.035 0.586,2.035 C0.586,2.027 0.586,2.018 0.586,2.010 C0.569,2.010 0.552,2.010 0.535,2.010 C0.527,1.993 0.518,1.976 0.510,1.960 C0.493,1.960 0.476,1.960 0.459,1.960 C0.450,1.943 0.442,1.926 0.433,1.910 C0.416,1.910 0.399,1.910 0.382,1.910 C0.340,1.859 0.297,1.809 0.255,1.759 C0.238,1.750 0.221,1.742 0.204,1.734 C0.204,1.717 0.204,1.700 0.204,1.683 C0.187,1.675 0.170,1.667 0.153,1.658 C0.136,1.608 0.119,1.558 0.102,1.507 C0.093,1.507 0.085,1.507 0.076,1.507 C0.076,1.491 0.076,1.474 0.076,1.457 C0.068,1.457 0.059,1.457 0.051,1.457 C0.042,1.407 0.034,1.357 0.025,1.307 C0.017,1.307 0.008,1.307 -0.000,1.307 C-0.000,1.248 -0.000,1.189 -0.000,1.131 C-0.001,0.856 0.030,0.676 0.127,0.503 C0.136,0.503 0.144,0.503 0.153,0.503 C0.153,0.486 0.153,0.469 0.153,0.452 C0.178,0.435 0.204,0.419 0.229,0.402 C0.229,0.385 0.229,0.368 0.229,0.352 C0.246,0.343 0.263,0.335 0.280,0.327 C0.306,0.293 0.331,0.260 0.357,0.226 C0.374,0.226 0.391,0.226 0.408,0.226 C0.425,0.201 0.442,0.176 0.459,0.151 C0.510,0.134 0.561,0.117 0.612,0.101 C0.612,0.092 0.612,0.084 0.612,0.075 C0.688,0.050 0.765,0.025 0.841,-0.000 ZM0.994,7.915 C7.194,7.915 13.397,7.915 19.597,7.915 C20.685,7.915 21.772,7.915 22.859,7.915 C23.183,7.915 23.744,7.866 24.006,7.940 C24.100,7.948 24.193,7.957 24.286,7.965 C24.286,7.973 24.286,7.982 24.286,7.990 C24.303,7.990 24.320,7.990 24.337,7.990 C24.337,7.998 24.337,8.007 24.337,8.015 C24.363,8.015 24.388,8.015 24.414,8.015 C24.422,8.032 24.431,8.049 24.439,8.066 C24.473,8.074 24.507,8.082 24.541,8.091 C24.558,8.116 24.575,8.141 24.592,8.166 C24.609,8.166 24.626,8.166 24.643,8.166 C24.652,8.183 24.660,8.200 24.669,8.216 C24.703,8.241 24.737,8.267 24.771,8.292 C24.771,8.308 24.771,8.325 24.771,8.342 C24.796,8.359 24.822,8.375 24.847,8.392 C24.856,8.426 24.864,8.459 24.873,8.493 C24.881,8.493 24.890,8.493 24.898,8.493 C24.970,8.626 25.000,8.766 25.000,8.970 C25.000,9.062 25.000,9.154 25.000,9.247 C24.991,9.247 24.983,9.247 24.975,9.247 C24.966,9.297 24.958,9.347 24.949,9.397 C24.941,9.397 24.932,9.397 24.924,9.397 C24.907,9.447 24.890,9.498 24.873,9.548 C24.864,9.548 24.856,9.548 24.847,9.548 C24.847,9.565 24.847,9.582 24.847,9.598 C24.822,9.615 24.796,9.632 24.771,9.649 C24.771,9.665 24.771,9.682 24.771,9.699 C24.737,9.724 24.703,9.749 24.669,9.774 C24.660,9.791 24.652,9.808 24.643,9.824 C24.626,9.824 24.609,9.824 24.592,9.824 C24.575,9.849 24.558,9.875 24.541,9.900 C24.507,9.908 24.473,9.917 24.439,9.925 C24.431,9.942 24.422,9.958 24.414,9.975 C24.388,9.975 24.363,9.975 24.337,9.975 C24.337,9.984 24.337,9.992 24.337,10.000 C24.320,10.000 24.303,10.000 24.286,10.000 C24.286,10.009 24.286,10.017 24.286,10.025 C24.193,10.034 24.100,10.042 24.006,10.051 C24.006,10.059 24.006,10.067 24.006,10.076 C23.547,10.076 23.089,10.076 22.630,10.076 C21.449,10.076 20.268,10.076 19.088,10.076 C14.662,10.076 10.236,10.076 5.810,10.076 C4.604,10.076 3.398,10.076 2.192,10.076 C1.718,10.076 0.892,10.136 0.586,9.975 C0.578,9.958 0.569,9.942 0.561,9.925 C0.527,9.917 0.493,9.908 0.459,9.900 C0.237,9.754 0.001,9.435 -0.000,9.071 C-0.000,8.962 -0.000,8.853 -0.000,8.744 C0.008,8.744 0.017,8.744 0.025,8.744 C0.034,8.694 0.042,8.643 0.051,8.593 C0.059,8.593 0.068,8.593 0.076,8.593 C0.093,8.543 0.110,8.493 0.127,8.442 C0.136,8.442 0.144,8.442 0.153,8.442 C0.153,8.426 0.153,8.409 0.153,8.392 C0.178,8.375 0.204,8.359 0.229,8.342 C0.229,8.325 0.229,8.308 0.229,8.292 C0.246,8.283 0.263,8.275 0.280,8.267 C0.306,8.233 0.331,8.200 0.357,8.166 C0.374,8.166 0.391,8.166 0.408,8.166 C0.425,8.141 0.442,8.116 0.459,8.091 C0.493,8.082 0.527,8.074 0.561,8.066 C0.569,8.049 0.578,8.032 0.586,8.015 C0.612,8.015 0.637,8.015 0.663,8.015 C0.663,8.007 0.663,7.998 0.663,7.990 C0.680,7.990 0.697,7.990 0.714,7.990 C0.714,7.982 0.714,7.973 0.714,7.965 C0.795,7.934 0.935,7.965 0.994,7.915 ZM0.943,15.855 C7.152,15.855 13.363,15.855 19.572,15.855 C20.702,15.855 21.832,15.855 22.961,15.855 C23.284,15.855 23.789,15.803 24.057,15.880 C24.108,15.880 24.159,15.880 24.210,15.880 C24.210,15.888 24.210,15.897 24.210,15.905 C24.235,15.905 24.261,15.905 24.286,15.905 C24.286,15.913 24.286,15.922 24.286,15.930 C24.312,15.930 24.337,15.930 24.363,15.930 C24.363,15.939 24.363,15.947 24.363,15.955 C24.380,15.955 24.397,15.955 24.414,15.955 C24.414,15.964 24.414,15.972 24.414,15.980 C24.431,15.980 24.448,15.980 24.465,15.980 C24.473,15.997 24.482,16.014 24.490,16.031 C24.507,16.031 24.524,16.031 24.541,16.031 C24.550,16.047 24.558,16.064 24.567,16.081 C24.584,16.081 24.601,16.081 24.618,16.081 C24.635,16.106 24.652,16.131 24.669,16.156 C24.841,16.323 24.999,16.524 25.000,16.860 C25.000,16.960 25.000,17.061 25.000,17.161 C24.869,17.590 24.613,17.857 24.184,17.991 C23.675,17.991 23.165,17.991 22.655,17.991 C21.466,17.991 20.277,17.991 19.088,17.991 C14.577,17.991 10.066,17.991 5.556,17.991 C4.375,17.991 3.194,17.991 2.013,17.991 C1.467,17.991 0.791,18.057 0.459,17.840 C0.248,17.702 0.081,17.429 -0.000,17.161 C-0.000,17.061 -0.000,16.960 -0.000,16.860 C0.001,16.524 0.159,16.323 0.331,16.156 C0.348,16.131 0.365,16.106 0.382,16.081 C0.399,16.081 0.416,16.081 0.433,16.081 C0.442,16.064 0.450,16.047 0.459,16.031 C0.476,16.031 0.493,16.031 0.510,16.031 C0.518,16.014 0.527,15.997 0.535,15.980 C0.552,15.980 0.569,15.980 0.586,15.980 C0.586,15.972 0.586,15.964 0.586,15.955 C0.603,15.955 0.620,15.955 0.637,15.955 C0.637,15.947 0.637,15.939 0.637,15.930 C0.663,15.930 0.688,15.930 0.714,15.930 C0.714,15.922 0.714,15.913 0.714,15.905 C0.794,15.877 0.886,15.904 0.943,15.855 Z"/>
</svg>
