<svg
	xmlns="http://www.w3.org/2000/svg"
	width="24px" height="24px">
<path fill="rgb(0, 0, 0)"
	  d="M0.498,0.006 C0.629,0.006 0.760,0.006 0.891,0.006 C0.891,0.014 0.891,0.022 0.891,0.031 C0.916,0.031 0.941,0.031 0.965,0.031 C0.965,0.039 0.965,0.047 0.965,0.055 C0.982,0.055 0.998,0.055 1.014,0.055 C1.014,0.063 1.014,0.072 1.014,0.080 C1.031,0.080 1.047,0.080 1.064,0.080 C1.072,0.096 1.080,0.113 1.088,0.129 C1.329,0.291 1.502,0.518 1.703,0.719 C1.851,0.859 1.998,0.998 2.146,1.137 C2.605,1.605 3.064,2.072 3.523,2.540 C4.220,3.228 4.917,3.917 5.614,4.606 C6.860,5.860 8.107,7.115 9.353,8.369 C9.845,8.853 10.337,9.337 10.829,9.820 C10.935,9.935 11.042,10.050 11.149,10.165 C11.337,10.345 11.526,10.525 11.714,10.706 C11.714,10.714 11.714,10.722 11.714,10.730 C11.802,10.818 11.921,10.891 11.985,11.001 C12.013,10.980 11.988,11.004 12.009,10.976 C14.871,8.123 17.733,5.269 20.594,2.417 C21.348,1.654 22.103,0.891 22.857,0.129 C22.873,0.129 22.890,0.129 22.906,0.129 C22.914,0.113 22.922,0.096 22.931,0.080 C22.963,0.072 22.996,0.063 23.029,0.055 C23.029,0.047 23.029,0.039 23.029,0.031 C23.124,-0.011 23.475,-0.011 23.570,0.031 C23.570,0.039 23.570,0.047 23.570,0.055 C23.603,0.063 23.636,0.072 23.668,0.080 C23.668,0.088 23.668,0.096 23.668,0.104 C23.685,0.104 23.701,0.104 23.718,0.104 C23.734,0.129 23.751,0.154 23.767,0.178 C23.808,0.211 23.849,0.244 23.890,0.277 C23.890,0.293 23.890,0.309 23.890,0.326 C23.898,0.326 23.906,0.326 23.915,0.326 C23.923,0.359 23.931,0.391 23.939,0.424 C23.947,0.424 23.955,0.424 23.964,0.424 C23.987,0.479 24.017,0.804 23.988,0.892 C23.980,0.892 23.972,0.892 23.964,0.892 C23.964,0.916 23.964,0.941 23.964,0.965 C23.955,0.965 23.947,0.965 23.939,0.965 C23.939,0.982 23.939,0.998 23.939,1.015 C23.931,1.015 23.923,1.015 23.915,1.015 C23.915,1.031 23.915,1.047 23.915,1.064 C23.201,1.785 22.488,2.507 21.774,3.228 C18.848,6.147 15.920,9.066 12.993,11.985 C12.993,11.993 12.993,12.001 12.993,12.009 C13.002,12.009 13.010,12.009 13.018,12.009 C15.871,14.871 18.725,17.733 21.578,20.594 C22.340,21.348 23.103,22.103 23.865,22.857 C23.865,22.873 23.865,22.890 23.865,22.906 C23.882,22.914 23.898,22.922 23.915,22.931 C23.923,22.963 23.931,22.996 23.939,23.029 C23.947,23.029 23.955,23.029 23.964,23.029 C24.005,23.124 24.005,23.475 23.964,23.570 C23.955,23.570 23.947,23.570 23.939,23.570 C23.931,23.603 23.923,23.636 23.915,23.669 C23.906,23.669 23.898,23.669 23.890,23.669 C23.890,23.685 23.890,23.701 23.890,23.718 C23.865,23.734 23.841,23.751 23.816,23.767 C23.783,23.808 23.751,23.849 23.718,23.890 C23.701,23.890 23.685,23.890 23.668,23.890 C23.668,23.898 23.668,23.906 23.668,23.915 C23.636,23.923 23.603,23.931 23.570,23.939 C23.570,23.947 23.570,23.956 23.570,23.964 C23.515,23.987 23.190,24.017 23.103,23.988 C23.103,23.980 23.103,23.972 23.103,23.964 C23.078,23.964 23.054,23.964 23.029,23.964 C23.029,23.956 23.029,23.947 23.029,23.939 C23.013,23.939 22.996,23.939 22.980,23.939 C22.980,23.931 22.980,23.923 22.980,23.915 C22.963,23.915 22.947,23.915 22.931,23.915 C22.209,23.201 21.487,22.488 20.766,21.775 C17.847,18.848 14.928,15.920 12.009,12.993 C12.001,12.993 11.993,12.993 11.985,12.993 C11.985,13.002 11.985,13.010 11.985,13.018 C11.875,13.082 11.802,13.201 11.714,13.288 C11.690,13.305 11.665,13.321 11.641,13.338 C11.477,13.510 11.313,13.682 11.149,13.854 C11.009,13.985 10.870,14.117 10.730,14.248 C10.247,14.740 9.763,15.232 9.279,15.724 C7.270,17.732 5.261,19.741 3.253,21.750 C2.769,22.225 2.285,22.701 1.802,23.177 C1.580,23.406 1.359,23.636 1.137,23.865 C1.121,23.865 1.105,23.865 1.088,23.865 C1.080,23.882 1.072,23.898 1.064,23.915 C1.047,23.915 1.031,23.915 1.014,23.915 C1.014,23.923 1.014,23.931 1.014,23.939 C0.998,23.939 0.982,23.939 0.965,23.939 C0.965,23.947 0.965,23.956 0.965,23.964 C0.941,23.964 0.916,23.964 0.891,23.964 C0.891,23.972 0.891,23.980 0.891,23.988 C0.834,23.988 0.777,23.988 0.719,23.988 C0.403,23.989 0.332,23.924 0.178,23.767 C0.154,23.751 0.129,23.734 0.104,23.718 C0.104,23.701 0.104,23.685 0.104,23.669 C0.096,23.669 0.088,23.669 0.080,23.669 C0.072,23.636 0.063,23.603 0.055,23.570 C0.047,23.570 0.039,23.570 0.031,23.570 C-0.010,23.475 -0.011,23.124 0.031,23.029 C0.039,23.029 0.047,23.029 0.055,23.029 C0.063,22.996 0.072,22.963 0.080,22.931 C0.096,22.922 0.113,22.914 0.129,22.906 C0.129,22.890 0.129,22.873 0.129,22.857 C0.891,22.103 1.654,21.348 2.416,20.594 C5.278,17.725 8.140,14.854 11.001,11.985 C8.082,9.074 5.163,6.163 2.244,3.253 C1.629,2.630 1.014,2.007 0.400,1.383 C0.208,1.192 0.006,1.085 0.006,0.695 C0.006,0.629 0.006,0.564 0.006,0.498 C0.014,0.498 0.022,0.498 0.031,0.498 C0.031,0.473 0.031,0.449 0.031,0.424 C0.039,0.424 0.047,0.424 0.055,0.424 C0.072,0.375 0.088,0.326 0.104,0.277 C0.154,0.236 0.203,0.195 0.252,0.154 C0.260,0.137 0.268,0.121 0.277,0.104 C0.293,0.104 0.309,0.104 0.326,0.104 C0.326,0.096 0.326,0.088 0.326,0.080 C0.342,0.080 0.359,0.080 0.375,0.080 C0.375,0.072 0.375,0.063 0.375,0.055 C0.416,0.047 0.457,0.039 0.498,0.031 C0.498,0.022 0.498,0.014 0.498,0.006 Z"/>
</svg>
