<svg xmlns="http://www.w3.org/2000/svg" x="0px" y="0px"
	 width="492px" height="492px" viewBox="-39 151 492 492" style="enable-background:new -39 151 492 492;" xml:space="preserve">
<path d="M261.2,397l184-184c5.1-5.1,7.9-11.8,7.9-19c0-7.2-2.8-14-7.9-19L429,158.9c-5.1-5.1-11.8-7.9-19-7.9
	c-7.2,0-14,2.8-19,7.9L207,342.8L23,158.9C18,153.8,11.2,151,4,151c-7.2,0-14,2.8-19,7.9L-31.1,175c-10.5,10.5-10.5,27.6,0,38.1
	l184,184l-184,184c-5.1,5.1-7.9,11.8-7.9,19c0,7.2,2.8,14,7.9,19l16.1,16.1c5.1,5.1,11.8,7.9,19,7.9c7.2,0,14-2.8,19-7.9l184-184
	l184,184c5.1,5.1,11.8,7.9,19,7.9h0c7.2,0,14-2.8,19-7.9l16.1-16.1c5.1-5.1,7.9-11.8,7.9-19c0-7.2-2.8-14-7.9-19L261.2,397z"/>
</svg>
