<svg xmlns="http://www.w3.org/2000/svg"
     viewBox="0 0 512 512">
        <path d="M437,75A256,256,0,0,0,75,437,256,256,0,0,0,437,75m13.05,103.7c-9.33.72-16.63-2-25.88-5.42a140.66,140.66,0,0,0-22-6.7c-22.74-4.52-46.07,7.88-59.43,31.59-3.89,6.9-22.5,42.45-6.66,64.26,5.93,8.18,13.87,12.94,20.26,16.76,8.56,5.13,17.42,10.44,27.45,14.49,2.13.86,4.25,1.64,6.29,2.4,6.09,2.24,12.38,4.57,14.63,7.65,1.26,1.72,2.58,5.61,1.68,14.32-.6,5.83-2.93,12.19-5.4,18.92-6.09,16.59-14.42,39.3,5.1,61.61a55.45,55.45,0,0,0,11.72,10.12A222,222,0,0,1,256,478.61C133.25,478.61,33.39,378.75,33.39,256A221.67,221.67,0,0,1,44,188.15a118.49,118.49,0,0,0,11.44,13.7,285.25,285.25,0,0,0,40.63,35.36c1.09.77,2.63,1.88,3.44,2.6.55,2.46.33,6,.08,10-.53,8.54-1.26,20.25,5.2,32.57,4.2,8,10.09,14.2,15.28,19.65s9.43,9.89,10.65,14.33c.87,3.17.5,7.83.11,12.77-.54,6.79-1.16,14.5.8,22.79,2.64,11.14,8.93,19.4,14.48,26.69,3.5,4.59,6.81,8.93,8.24,12.9,1.1,3.06,1.55,7.2,2,11.57a101.63,101.63,0,0,0,2.32,14.47c3.93,15.34,16.66,30.05,33.83,30.05q1.38,0,2.79-.12c17.79-1.63,30-17.52,31.87-41.48.3-3.88,1.1-14.1,3.08-16.36.61-.24,2.1-.61,3.21-.88,4.7-1.15,11.81-2.89,17.69-8.91,10.82-11.08,7.83-25,6.05-33.27a38.24,38.24,0,0,1-1.11-6.81c.09-3.95,8.2-10.87,11.25-13.47l30.51-26.07c11.88-10,16.33-27.52,11.06-43.49-3.76-11.39-12.08-21.64-24.07-29.63-14.79-9.86-30.78-12.39-43.86-6.94A56.62,56.62,0,0,0,230,226.65c-.87.62-2,1.44-3,2a10.42,10.42,0,0,1-1.39-2,63.56,63.56,0,0,1-3.14-7.41,86.56,86.56,0,0,0-5.25-11.95C204.92,185,184.72,182.57,170,180.77c-2.52-.31-4.9-.6-7.28-1A77.88,77.88,0,0,1,128,164.92c3.55-1.27,7.9-2.26,10.24-2.17,1.69.06,3.67.28,5.77.52,6,.69,13.52,1.54,21.59-.72s14.17-7,19-10.75c1.37-1.08,2.68-2.1,3.88-2.94,2.26-1.58,6.65-2,11.31-2.34,11.59-1,35.71-3,39.13-36.52,1.69-16.6-4.37-31.46-9.24-43.4-4-9.93-8-19.79-11.42-30A224.18,224.18,0,0,1,256,33.39a221.65,221.65,0,0,1,78.54,14.32l-2.2,2.16c-7.42,7.28-15.09,14.8-20.38,21.64-2.23,2.89-6,7.73-7.07,14.69C303,98,310.09,107.1,313.11,111c4.48,5.76,12,15.41,24.39,18.5a33,33,0,0,0,8,1c9.35,0,17.3-3.92,23.46-7,3.55-1.75,7.21-3.56,9.41-3.73s5.77,1,9.34,2.21c5.22,1.71,11.13,3.65,18.09,3.9a31.4,31.4,0,0,0,23.65-9.25,222.81,222.81,0,0,1,35.12,61.57l-3.49.06c-3.27,0-7,.09-11,.4"
              transform="translate(0 0)"/>
</svg>
