<?xml version="1.0" encoding="utf-8"?>
<!-- Generator: Adobe Illustrator 24.0.1, SVG Export Plug-In . SVG Version: 6.00 Build 0)  -->
<svg version="1.1" id="Слой_1" xmlns="http://www.w3.org/2000/svg" xmlns:xlink="http://www.w3.org/1999/xlink" x="0px" y="0px"
	 viewBox="0 0 815 200" style="enable-background:new 0 0 815 200;" xml:space="preserve">
<style type="text/css">
	.st0{fill:#999A9B;}
</style>
<g>
	<path class="st0" d="M21.7,65.74h-18c-1.1,0-2-0.9-2-2v-18c0-1.1,0.9-2,2-2h18c1.1,0,2,0.9,2,2v18
		C23.7,64.84,22.8,65.74,21.7,65.74z"/>
	<path class="st0" d="M45.42,111.19H3.7c-1.1,0-2-0.9-2-2v-18c0-1.1,0.9-2,2-2h41.73c1.1,0,2,0.9,2,2v18
		C47.42,110.29,46.52,111.19,45.42,111.19z"/>
	<path class="st0" d="M204.35,156.65H49.56c-1.1,0-2-0.9-2-2v-18c0-1.1,0.9-2,2-2h154.79c1.1,0,2,0.9,2,2v18
		C206.35,155.75,205.45,156.65,204.35,156.65z"/>
	<path class="st0" d="M67.42,65.74h-18c-1.1,0-2-0.9-2-2v-18c0-1.1,0.9-2,2-2h18c1.1,0,2,0.9,2,2v18
		C69.42,64.84,68.52,65.74,67.42,65.74z"/>
	<path class="st0" d="M90.42,111.19h-18c-1.1,0-2-0.9-2-2v-18c0-1.1,0.9-2,2-2h18c1.1,0,2,0.9,2,2v18
		C92.42,110.29,91.52,111.19,90.42,111.19z"/>
	<path class="st0" d="M21.7,156.65h-18c-1.1,0-2-0.9-2-2v-18c0-1.1,0.9-2,2-2h18c1.1,0,2,0.9,2,2v18
		C23.7,155.75,22.8,156.65,21.7,156.65z"/>
	<path class="st0" d="M135.9,111.19h-18c-1.1,0-2-0.9-2-2v-18c0-1.1,0.9-2,2-2h18c1.1,0,2,0.9,2,2v18
		C137.9,110.29,137,111.19,135.9,111.19z"/>
	<path class="st0" d="M181.62,111.19h-18c-1.1,0-2-0.9-2-2v-18c0-1.1,0.9-2,2-2h18c1.1,0,2,0.9,2,2v18
		C183.62,110.29,182.72,111.19,181.62,111.19z"/>
	<path class="st0" d="M250,156.65h-18c-1.1,0-2-0.9-2-2v-18c0-1.1,0.9-2,2-2h18c1.1,0,2,0.9,2,2v18
		C252,155.75,251.1,156.65,250,156.65z"/>
	<path class="st0" d="M250,43.74h-18c-1.1,0-2,0.9-2,2V89.2h-21.65c-1.1,0-2,0.9-2,2v18c0,1.1,0.9,2,2,2H250c1.1,0,2-0.9,2-2V97.74
		V91.2V45.74C252,44.64,251.1,43.74,250,43.74z"/>
	<path class="st0" d="M112.9,65.74h-18c-1.1,0-2-0.9-2-2v-18c0-1.1,0.9-2,2-2h18c1.1,0,2,0.9,2,2v18
		C114.9,64.84,114,65.74,112.9,65.74z"/>
	<path class="st0" d="M158.62,65.74h-18c-1.1,0-2-0.9-2-2v-18c0-1.1,0.9-2,2-2h18c1.1,0,2,0.9,2,2v18
		C160.62,64.84,159.72,65.74,158.62,65.74z"/>
	<path class="st0" d="M203.84,65.74h-18c-1.1,0-2-0.9-2-2v-18c0-1.1,0.9-2,2-2h18c1.1,0,2,0.9,2,2v18
		C205.84,64.84,204.94,65.74,203.84,65.74z"/>
</g>
<g>
	<path class="st0" d="M323.84,26.89l-9.81,0.62c-0.14-5.64-2.34-8.47-6.61-8.47c-4.89,0-7.34,4.35-7.34,13.04
		c0,5.02,0.67,8.42,2,10.21s3.19,2.68,5.58,2.68c3.87,0,6.24-2.52,7.1-7.56l9.08,0.56c-0.59,4.79-2.37,8.42-5.35,10.91
		s-6.63,3.74-10.94,3.74c-5.29,0-9.59-1.83-12.91-5.48c-3.31-3.65-4.97-8.7-4.97-15.15c0-6.04,1.6-10.98,4.8-14.82
		c3.2-3.85,7.58-5.77,13.13-5.77C317.22,11.39,322.63,16.56,323.84,26.89z"/>
	<path class="st0" d="M329.23,52V12h29.71v40h-9.2V19.3h-11.31V52H329.23z"/>
	<path class="st0" d="M376.31,12v40h-9.35V12H376.31z"/>
	<path class="st0" d="M387.69,52h-8.25l11.27-40h12.56l11.39,40h-10.14l-8.39-31.67L387.69,52z"/>
	<path class="st0" d="M427.29,12v18.79L439.83,12h8.97l-9.6,14.28L451.19,52h-10.32l-7.98-17.37l-5.61,8.2V52h-9.2V12H427.29z"/>
	<path class="st0" d="M475.56,12l12.52,40h-10.07l-2.46-8.23h-12.93L460.11,52h-8.21l12.81-40H475.56z M464.87,36.38h8.47
		l-4.2-14.03L464.87,36.38z"/>
	<path class="st0" d="M311.24,80l12.51,40h-10.07l-2.46-8.23h-12.93l-2.51,8.23h-8.21l12.82-40H311.24z M300.54,104.38h8.47
		l-4.2-14.03L300.54,104.38z"/>
	<path class="st0" d="M328.06,80h18.63c3.34,0,5.85,0.41,7.53,1.23s3.07,1.99,4.16,3.51c1.09,1.52,1.64,3.38,1.64,5.56
		c0,4.43-2.4,7.39-7.21,8.87c2.77,0.63,4.85,1.87,6.24,3.72c1.39,1.86,2.08,3.88,2.08,6.07c0,2.99-1.13,5.58-3.4,7.75
		c-2.27,2.18-5.95,3.27-11.04,3.27h-18.63V80z M337.41,87.07v8.76h7.09c2.6,0,4.23-0.51,4.91-1.54s1.01-2.01,1.01-2.94
		c0-1.02-0.28-1.89-0.83-2.62s-1.17-1.19-1.83-1.38c-0.66-0.19-1.97-0.28-3.93-0.28H337.41z M337.41,102.94v9.64h7.19
		c2.46,0,4.19-0.43,5.2-1.29s1.52-2.06,1.52-3.6c0-1.29-0.49-2.4-1.46-3.34s-2.59-1.41-4.85-1.41H337.41z"/>
	<path class="st0" d="M392.89,80v7.91h-9.9V120h-9.49V87.92h-9.96V80H392.89z"/>
	<path class="st0" d="M411.92,120.61c-5.39,0-9.55-2.02-12.5-6.06S395,105.61,395,99.87c0-5.84,1.49-10.71,4.48-14.62
		c2.99-3.91,7.24-5.86,12.76-5.86c5.58,0,9.79,2.08,12.63,6.25s4.26,8.94,4.26,14.31c0,5.8-1.46,10.69-4.39,14.68
		S417.54,120.61,411.92,120.61z M412.19,87.04c-4.91,0-7.37,4.32-7.37,12.95c0,8.65,2.46,12.98,7.37,12.98
		c4.76,0,7.13-4.32,7.13-12.95C419.32,91.36,416.94,87.04,412.19,87.04z"/>
	<path class="st0" d="M452.97,120l-9.87-32.61V120h-7.85V80h14.59l7.02,23.94L464.25,80h14.63v40h-9.43V87.39L459.39,120H452.97z"/>
	<path class="st0" d="M506.29,80l12.52,40h-10.07l-2.46-8.23h-12.93l-2.51,8.23h-8.21l12.82-40H506.29z M495.6,104.38h8.47
		l-4.2-14.03L495.6,104.38z"/>
	<path class="st0" d="M546,80v7.91h-9.9V120h-9.49V87.92h-9.96V80H546z"/>
	<path class="st0" d="M559.21,116.04V120h-9.2V80h9.2v17.03c0,2.93-0.09,5.88-0.26,8.87c1.52-3.41,3.01-6.16,4.47-8.25l9.38-13.49
		V80h9.2v40h-9.2v-18.13c0-3.04,0.09-5.52,0.26-7.45c-1.27,3-2.77,5.74-4.5,8.21L559.21,116.04z"/>
	<path class="st0" d="M586.75,107.84l8.35-1.14c0.7,4.18,3.23,6.27,7.57,6.27c4.54,0,6.81-1.78,6.81-5.33c0-3.38-1.9-5.07-5.69-5.07
		h-3.21v-6.18h2.9c1.62,0,2.89-0.44,3.79-1.32s1.36-2.04,1.36-3.49s-0.57-2.56-1.7-3.35s-2.6-1.19-4.39-1.19
		c-2.11,0-3.73,0.4-4.86,1.19s-1.88,2.21-2.23,4.26l-7.68-1.29c1.13-7.87,6.16-11.81,15.09-11.81c4.77,0,8.5,0.99,11.21,2.96
		s4.06,4.55,4.06,7.73c0,4.16-2.29,7.02-6.86,8.58c5.35,1.5,8.03,4.59,8.03,9.26c0,3.71-1.44,6.76-4.32,9.13s-6.74,3.56-11.59,3.56
		c-5.45,0-9.54-1.19-12.28-3.56S586.93,111.61,586.75,107.84z"/>
	<path class="st0" d="M644.58,80l12.51,40h-10.07l-2.46-8.23h-12.93l-2.51,8.23h-8.21l12.82-40H644.58z M633.88,104.38h8.47
		l-4.2-14.03L633.88,104.38z"/>
	<path class="st0" d="M684.28,80v7.91h-9.9V120h-9.49V87.92h-9.96V80H684.28z"/>
	<path class="st0" d="M703.31,120.61c-5.39,0-9.55-2.02-12.5-6.06s-4.42-8.94-4.42-14.68c0-5.84,1.49-10.71,4.48-14.62
		s7.24-5.86,12.76-5.86c5.58,0,9.79,2.08,12.63,6.25s4.26,8.94,4.26,14.31c0,5.8-1.46,10.69-4.39,14.68
		C713.2,118.62,708.93,120.61,703.31,120.61z M703.57,87.04c-4.91,0-7.37,4.32-7.37,12.95c0,8.65,2.46,12.98,7.37,12.98
		c4.76,0,7.13-4.32,7.13-12.95C710.71,91.36,708.33,87.04,703.57,87.04z"/>
	<path class="st0" d="M736.17,105.14V120h-9.52V80h15.76c3.52,0,6.21,0.38,8.07,1.13c1.87,0.75,3.53,2.09,5,4.03s2.2,4.31,2.2,7.12
		c0,1.97-0.39,3.9-1.17,5.77s-1.88,3.35-3.31,4.42s-2.81,1.79-4.15,2.14s-3.43,0.53-6.28,0.53
		C742.77,105.14,736.17,105.14,736.17,105.14z M735.84,97.88h6.09c2.32,0,3.96-0.54,4.89-1.61c0.94-1.07,1.41-2.3,1.41-3.69
		c0-1.62-0.52-2.91-1.57-3.87c-1.04-0.96-2.63-1.44-4.76-1.44h-6.06V97.88z"/>
	<path class="st0" d="M772.2,80v40h-9.35V80H772.2z"/>
	<path class="st0" d="M780.23,80h18.63c3.34,0,5.85,0.41,7.53,1.23c1.68,0.82,3.07,1.99,4.16,3.51c1.09,1.52,1.64,3.38,1.64,5.56
		c0,4.43-2.4,7.39-7.21,8.87c2.77,0.63,4.85,1.87,6.24,3.72s2.08,3.88,2.08,6.07c0,2.99-1.13,5.58-3.4,7.75
		c-2.27,2.18-5.95,3.27-11.04,3.27h-18.63V80z M789.57,87.07v8.76h7.09c2.6,0,4.23-0.51,4.91-1.54s1.01-2.01,1.01-2.94
		c0-1.02-0.28-1.89-0.83-2.62s-1.17-1.19-1.83-1.38c-0.66-0.19-1.97-0.28-3.93-0.28H789.57z M789.57,102.94v9.64h7.19
		c2.46,0,4.19-0.43,5.2-1.29s1.52-2.06,1.52-3.6c0-1.29-0.49-2.4-1.46-3.34s-2.59-1.41-4.85-1.41H789.57z"/>
	<path class="st0" d="M291.59,188v-40h26.78v7.18h-17.58v8.73h6.74c3.5,0,6.26,0.34,8.31,1.01c2.04,0.67,3.71,1.96,5,3.85
		s1.93,4.23,1.93,7c0,3.85-1.18,6.85-3.53,8.99c-2.35,2.15-5.64,3.22-9.86,3.22h-17.79V188z M300.78,180.44h7.21
		c1.7,0,3.01-0.44,3.93-1.33c0.92-0.89,1.38-2.06,1.38-3.5c0-3.11-2.02-4.66-6.06-4.66h-6.45L300.78,180.44L300.78,180.44z"/>
	<path class="st0" d="M338.02,148v40h-9.35v-40H338.02z"/>
	<path class="st0" d="M342.77,175.84l8.35-1.14c0.7,4.18,3.23,6.27,7.57,6.27c4.54,0,6.81-1.78,6.81-5.33c0-3.38-1.9-5.07-5.69-5.07
		h-3.21v-6.18h2.9c1.62,0,2.89-0.44,3.79-1.32s1.36-2.04,1.36-3.49s-0.57-2.56-1.7-3.35c-1.13-0.79-2.6-1.19-4.39-1.19
		c-2.11,0-3.73,0.4-4.86,1.19c-1.13,0.79-1.88,2.21-2.23,4.26l-7.68-1.29c1.13-7.87,6.16-11.81,15.09-11.81
		c4.77,0,8.5,0.99,11.21,2.96s4.06,4.55,4.06,7.73c0,4.16-2.29,7.02-6.86,8.58c5.35,1.5,8.03,4.59,8.03,9.26
		c0,3.71-1.44,6.76-4.32,9.13c-2.88,2.38-6.74,3.56-11.59,3.56c-5.45,0-9.54-1.19-12.28-3.56
		C344.4,182.68,342.94,179.61,342.77,175.84z"/>
	<path class="st0" d="M412.11,148v40h-9.2v-16.5h-12.48V188h-9.2v-40h9.2v15.59h12.48V148H412.11z"/>
	<path class="st0" d="M448.7,155.62h-19.04v8.2h14.97v7.53h-14.97v8.73h19.04V188h-28.56v-40h28.56V155.62z"/>
	<path class="st0" d="M486.58,162.89l-9.81,0.62c-0.14-5.64-2.34-8.47-6.61-8.47c-4.89,0-7.34,4.35-7.34,13.04
		c0,5.02,0.67,8.42,2,10.21c1.33,1.79,3.19,2.68,5.58,2.68c3.88,0,6.24-2.52,7.1-7.56l9.08,0.56c-0.59,4.79-2.37,8.42-5.35,10.91
		s-6.63,3.74-10.94,3.74c-5.29,0-9.59-1.83-12.91-5.48s-4.97-8.7-4.97-15.15c0-6.04,1.6-10.98,4.8-14.82s7.58-5.77,13.13-5.77
		C479.96,147.39,485.37,152.56,486.58,162.89z"/>
	<path class="st0" d="M500.89,175.95L486.29,148h10.05l8.76,17.72l7.18-17.72h8.34l-12.2,29.59c-1.52,3.73-3.21,6.4-5.07,8
		c-1.86,1.6-4.51,2.4-7.95,2.4h-4.02v-7.65h3.23c1.53,0,2.77-0.25,3.73-0.75C499.3,179.1,500.15,177.89,500.89,175.95z"/>
</g>
</svg>
